<?xml version="1.0" encoding="utf-8"?>
<!-- Generator: Adobe Illustrator 23.1.0, SVG Export Plug-In . SVG Version: 6.00 Build 0)  -->
<svg version="1.1" id="Слой_1" xmlns="http://www.w3.org/2000/svg" xmlns:xlink="http://www.w3.org/1999/xlink" x="0px" y="0px"
	 viewBox="0 0 390 435" style="enable-background:new 0 0 390 435;" xml:space="preserve">
<style type="text/css">
	.st0{fill:#FEDE17;}
	.st1{fill:#1B73B6;}
	.st2{fill:#E30D20;}
</style>
<path class="st0" d="M309.63,142.53l-41.14-23.8c-4.52-2.62-4.5-9.66,0.04-12.24l41.14-23.43c1.82-1.04,3.99-1.06,5.82-0.06
	l43.2,23.43c4.69,2.54,4.71,9.79,0.04,12.37l-43.19,23.8C313.66,143.61,311.46,143.59,309.63,142.53z"/>
<path class="st0" d="M249.44,108.89l-41.14-23.8c-4.52-2.62-4.5-9.66,0.04-12.24l41.14-23.43c1.82-1.04,3.99-1.06,5.82-0.06
	l43.2,23.43c4.69,2.54,4.71,9.79,0.04,12.37l-43.19,23.8C253.48,109.98,251.28,109.95,249.44,108.89z"/>
<path class="st0" d="M189.25,142.53l-41.14-23.8c-4.52-2.62-4.5-9.66,0.04-12.24l41.14-23.43c1.82-1.04,3.99-1.06,5.82-0.06
	l43.2,23.43c4.69,2.54,4.71,9.79,0.04,12.37l-43.19,23.8C193.29,143.61,191.09,143.59,189.25,142.53z"/>
<path class="st0" d="M129.07,176.16l-41.14-23.8c-4.52-2.62-4.5-9.66,0.04-12.24l41.14-23.43c1.82-1.03,3.99-1.06,5.82-0.06
	l43.2,23.43c4.69,2.54,4.71,9.79,0.04,12.37l-43.19,23.8C133.11,177.25,130.9,177.22,129.07,176.16z"/>
<path class="st0" d="M189.25,283l-41.14-23.8c-4.52-2.62-4.5-9.66,0.04-12.24l41.14-23.43c1.82-1.03,3.99-1.06,5.82-0.06l43.2,23.43
	c4.69,2.54,4.71,9.79,0.04,12.37l-43.19,23.8C193.29,284.09,191.09,284.07,189.25,283z"/>
<path class="st1" d="M10.71,179.57v-51.69c0-5.19,5.06-8.53,9.31-6.15l43.77,24.51c2.12,1.19,3.46,3.56,3.46,6.15v51.69
	c0,5.19-5.06,8.53-9.31,6.15l-43.77-24.51C12.05,184.54,10.71,182.17,10.71,179.57z"/>
<path class="st1" d="M10.71,251.3v-51.69c0-5.19,5.06-8.53,9.31-6.15l43.77,24.51c2.12,1.19,3.46,3.56,3.46,6.15v51.69
	c0,5.19-5.06,8.53-9.31,6.15l-43.77-24.51C12.05,256.26,10.71,253.89,10.71,251.3z"/>
<path class="st1" d="M11.63,323.51v-51.69c0-5.19,5.06-8.53,9.31-6.15l43.77,24.51c2.12,1.19,3.46,3.56,3.46,6.15v51.69
	c0,5.19-5.06,8.53-9.31,6.15l-43.77-24.51C12.96,328.48,11.63,326.1,11.63,323.51z"/>
<path class="st1" d="M71.81,212.72v-51.69c0-5.19,5.06-8.53,9.31-6.15l43.77,24.51c2.12,1.19,3.46,3.56,3.46,6.15v51.69
	c0,5.19-5.06,8.53-9.31,6.15l-43.77-24.51C73.15,217.68,71.81,215.31,71.81,212.72z"/>
<path class="st1" d="M71.81,284.93v-51.69c0-5.19,5.06-8.53,9.31-6.15l43.77,24.51c2.12,1.19,3.46,3.56,3.46,6.15v51.69
	c0,5.19-5.06,8.53-9.31,6.15l-43.77-24.51C73.15,289.9,71.81,287.52,71.81,284.93z"/>
<path class="st1" d="M71.81,357.15v-51.69c0-5.19,5.06-8.53,9.31-6.15l43.77,24.51c2.12,1.19,3.46,3.56,3.46,6.15v51.69
	c0,5.19-5.06,8.53-9.31,6.15L75.27,363.3C73.15,362.11,71.81,359.74,71.81,357.15z"/>
<path class="st1" d="M132,390.78V339.1c0-5.19,5.06-8.53,9.31-6.15l43.77,24.51c2.12,1.19,3.46,3.56,3.46,6.15v51.69
	c0,5.19-5.06,8.53-9.31,6.15l-43.77-24.51C133.33,395.75,132,393.37,132,390.78z"/>
<path class="st1" d="M132.91,318.57v-51.69c0-5.19,5.06-8.53,9.31-6.15l43.77,24.51c2.12,1.19,3.46,3.56,3.46,6.15v51.69
	c0,5.19-5.06,8.53-9.31,6.15l-43.77-24.51C134.24,323.53,132.91,321.16,132.91,318.57z"/>
<path class="st1" d="M194.92,212.72v-51.69c0-5.19,5.06-8.53,9.31-6.15L248,179.38c2.12,1.19,3.46,3.56,3.46,6.15v51.69
	c0,5.19-5.06,8.53-9.31,6.15l-43.77-24.51C196.25,217.68,194.92,215.31,194.92,212.72z"/>
<path class="st0" d="M68.88,142.53l-41.14-23.8c-4.52-2.62-4.5-9.66,0.04-12.24l41.14-23.43c1.82-1.04,3.99-1.06,5.82-0.06
	l43.2,23.43c4.69,2.54,4.71,9.79,0.04,12.37l-43.19,23.8C72.92,143.61,70.72,143.59,68.88,142.53z"/>
<path class="st0" d="M249.44,176.16l-41.14-23.8c-4.52-2.62-4.5-9.66,0.04-12.24l41.14-23.43c1.82-1.03,3.99-1.06,5.82-0.06
	l43.2,23.43c4.69,2.54,4.71,9.79,0.04,12.37l-43.19,23.8C253.48,177.25,251.28,177.22,249.44,176.16z"/>
<path class="st0" d="M129.07,108.89l-41.14-23.8c-4.52-2.62-4.5-9.66,0.04-12.24l41.14-23.43c1.82-1.04,3.99-1.06,5.82-0.06
	l43.2,23.43c4.69,2.54,4.71,9.79,0.04,12.37l-43.19,23.8C133.11,109.98,130.9,109.95,129.07,108.89z"/>
<path class="st0" d="M189.25,74.27l-41.14-23.8c-4.52-2.62-4.5-9.66,0.04-12.24l41.14-23.43c1.82-1.04,3.99-1.06,5.82-0.06
	l43.2,23.43c4.69,2.54,4.71,9.79,0.04,12.37l-43.19,23.8C193.29,75.35,191.09,75.33,189.25,74.27z"/>
<path class="st2" d="M315.29,203.14v-51.74c0-2.58,1.33-4.95,3.44-6.14l44.23-24.95c4.25-2.4,9.33,0.95,9.33,6.14v52.12
	c0,2.6-1.34,4.98-3.47,6.16l-44.23,24.57C320.34,211.66,315.29,208.31,315.29,203.14z"/>
<path class="st2" d="M315.75,276.34V224.6c0-2.58,1.33-4.95,3.44-6.14l44.23-24.95c4.25-2.4,9.33,0.95,9.33,6.14v52.12
	c0,2.6-1.34,4.98-3.47,6.16l-44.23,24.57C320.79,284.86,315.75,281.52,315.75,276.34z"/>
<path class="st2" d="M315.29,348.56v-51.74c0-2.58,1.33-4.95,3.44-6.14l44.23-24.95c4.25-2.4,9.33,0.95,9.33,6.14v52.12
	c0,2.6-1.34,4.98-3.47,6.16l-44.23,24.57C320.34,357.08,315.29,353.73,315.29,348.56z"/>
<path class="st2" d="M255.11,382.19v-51.74c0-2.58,1.33-4.95,3.44-6.14l44.23-24.95c4.25-2.4,9.33,0.95,9.33,6.14v52.12
	c0,2.6-1.34,4.98-3.47,6.16l-44.23,24.57C260.15,390.72,255.11,387.37,255.11,382.19z"/>
<path class="st2" d="M194.92,415.83v-51.74c0-2.58,1.33-4.95,3.44-6.14l44.23-24.95c4.25-2.4,9.33,0.95,9.33,6.14v52.12
	c0,2.6-1.34,4.98-3.47,6.16l-44.23,24.57C199.97,424.35,194.92,421,194.92,415.83z"/>
<path class="st2" d="M255.11,237.76v-51.74c0-2.58,1.33-4.95,3.44-6.14l44.23-24.95c4.25-2.4,9.33,0.95,9.33,6.14v52.12
	c0,2.6-1.34,4.98-3.47,6.16l-44.23,24.57C260.15,246.28,255.11,242.94,255.11,237.76z"/>
<path class="st2" d="M134.73,237.76v-51.74c0-2.58,1.33-4.95,3.44-6.14l44.23-24.95c4.25-2.4,9.33,0.95,9.33,6.14v52.12
	c0,2.6-1.34,4.98-3.47,6.16l-44.23,24.57C139.78,246.28,134.73,242.94,134.73,237.76z"/>
<path class="st2" d="M194.92,343.61v-51.74c0-2.58,1.33-4.95,3.44-6.14l44.23-24.95c4.25-2.4,9.33,0.95,9.33,6.14v52.12
	c0,2.6-1.34,4.98-3.47,6.16l-44.23,24.57C199.97,352.13,194.92,348.79,194.92,343.61z"/>
<path class="st2" d="M255.11,309.98v-51.74c0-2.58,1.33-4.95,3.44-6.14l44.23-24.95c4.25-2.4,9.33,0.95,9.33,6.14v52.12
	c0,2.6-1.34,4.98-3.47,6.16l-44.23,24.57C260.15,318.5,255.11,315.15,255.11,309.98z"/>
</svg>
